replay
version=1
nRows=9
nColumns=40
inDegrees=no
endheader
time	/jointset/ground_pelvis/pelvis_tilt/value	/jointset/ground_pelvis/pelvis_list/value	/jointset/ground_pelvis/pelvis_rotation/value	/jointset/ground_pelvis/pelvis_tx/value	/jointset/ground_pelvis/pelvis_ty/value	/jointset/ground_pelvis/pelvis_tz/value	/jointset/hip_r/hip_flexion_r/value	/jointset/hip_r/hip_adduction_r/value	/jointset/hip_r/hip_rotation_r/value	/jointset/walker_knee_r/knee_angle_r/value	/jointset/patellofemoral_r/knee_angle_r_beta/value	/jointset/ankle_r/ankle_angle_r/value	/jointset/subtalar_r/subtalar_angle_r/value	/jointset/mtp_r/mtp_angle_r/value	/jointset/hip_l/hip_flexion_l/value	/jointset/hip_l/hip_adduction_l/value	/jointset/hip_l/hip_rotation_l/value	/jointset/walker_knee_l/knee_angle_l/value	/jointset/patellofemoral_l/knee_angle_l_beta/value	/jointset/ankle_l/ankle_angle_l/value	/jointset/subtalar_l/subtalar_angle_l/value	/jointset/mtp_l/mtp_angle_l/value	/jointset/back/lumbar_extension/value	/jointset/back/lumbar_bending/value	/jointset/back/lumbar_rotation/value	/jointset/acromial_r/arm_flex_r/value	/jointset/acromial_r/arm_add_r/value	/jointset/acromial_r/arm_rot_r/value	/jointset/elbow_r/elbow_flex_r/value	/jointset/radioulnar_r/pro_sup_r/value	/jointset/radius_hand_r/wrist_flex_r/value	/jointset/radius_hand_r/wrist_dev_r/value	/jointset/acromial_l/arm_flex_l/value	/jointset/acromial_l/arm_add_l/value	/jointset/acromial_l/arm_rot_l/value	/jointset/elbow_l/elbow_flex_l/value	/jointset/radioulnar_l/pro_sup_l/value	/jointset/radius_hand_l/wrist_flex_l/value	/jointset/radius_hand_l/wrist_dev_l/value
0.15	-0.1902917447	-0.1541707608	-0.3078307641	1.176488144	1.056620976	-0.100491626	0.2885360603	0.1778805762	0.2400387412	0.1436496579	0.1436496579	-0.2025684911	-0.1859639738	-2.502800521e-06	0.1730439286	-0.1537437293	-0.2553392821	0.09518949011	0.09518949011	-0.09800479188	-0.1626298821	-2.640235106e-06	0.3620025389	0.9538921581	-0.8709527676	-0.8719414525	-1.295307919	-1.133280788	0.5895728362	0.1863359487	0.5063918653	-0.785366058	-0.07919521465	0.7550645123	-1.094465746	1.770577814	0.1921419161	-5.389975918e-05	-0.0001047936394
0.152777778	-0.1904906661	-0.1538539675	-0.3083659069	1.176522089	1.056636713	-0.1005761483	0.2888501464	0.1776963643	0.240761265	0.1436218655	0.1436218655	-0.2026439128	-0.1859887505	-2.47543666e-06	0.173201301	-0.1534078487	-0.2559108313	0.0953754055	0.0953754055	-0.09795532542	-0.16277906	-2.563988514e-06	0.3621683805	0.9544228248	-0.8715152655	-0.8721709675	-1.295346166	-1.133471437	0.5897200052	0.1861179473	0.506267813	-0.785382084	-0.07863259491	0.7551091191	-1.094385655	1.770443118	0.19205266	-5.287060622e-05	-9.470214383e-05
0.155555556	-0.1906718935	-0.153542111	-0.3089104563	1.17655658	1.056649589	-0.1006648329	0.2891435887	0.1775030509	0.2414880085	0.1436024932	0.1436024932	-0.2027190839	-0.1860057395	-2.423163719e-06	0.1733376048	-0.153063834	-0.2564982082	0.09556463096	0.09556463096	-0.09790248786	-0.1629413937	-2.541566239e-06	0.362317906	0.9549806349	-0.8720886869	-0.8724010818	-1.295351631	-1.133712424	0.5897871571	0.1858811775	0.5062377146	-0.7853960232	-0.07807391533	0.7551402511	-1.09430718	1.770300218	0.1919575776	-5.440395988e-05	-8.494434702e-05
0.158333333	-0.1908344572	-0.153243169	-0.3094493492	1.176590188	1.05665845	-0.1007572865	0.289415327	0.1773083571	0.2421929849	0.1435894623	0.1435894623	-0.2028003934	-0.1860267172	-2.369027388e-06	0.1734600544	-0.1527220383	-0.2570721317	0.09576482312	0.09576482312	-0.09784718108	-0.1630941486	-2.598590202e-06	0.3624647467	0.9555602733	-0.872711172	-0.8726069646	-1.295317397	-1.13398765	0.5898675859	0.1856835756	0.506155816	-0.7853898105	-0.07753525112	0.7551610657	-1.094258583	1.770178959	0.1918680646	-5.315871911e-05	-7.84893856e-05
0.161111111	-0.1909773762	-0.1529651407	-0.3099679082	1.176621488	1.056662165	-0.1008530851	0.2896642239	0.1771201358	0.2428511053	0.1435807816	0.1435807816	-0.2028939384	-0.1860631185	-2.300844619e-06	0.173575584	-0.1523928993	-0.2576042832	0.09598351565	0.09598351565	-0.09779024166	-0.1632152795	-2.737263515e-06	0.3626220377	0.9561566213	-0.8734195515	-0.8727636395	-1.295236449	-1.134280687	0.590050646	0.1855822684	0.5058797622	-0.7853464615	-0.07703240456	0.7551745702	-1.094267404	1.770108585	0.1917952596	-4.397970765e-05	-7.823366325e-05
0.163888889	-0.1910984771	-0.1527178613	-0.3104611848	1.176649484	1.056660531	-0.1009509426	0.2898851535	0.1769512674	0.243467576	0.1435744306	0.1435744306	-0.2029959768	-0.1861134246	-2.252511745e-06	0.1736827446	-0.1520905297	-0.2580979743	0.09622456502	0.09622456502	-0.09773039412	-0.1633083593	-2.874649628e-06	0.3627863338	0.9567718357	-0.8742053841	-0.872856046	-1.295097055	-1.13456466	0.5902852817	0.1855542809	0.5054175865	-0.7852749748	-0.07657085591	0.7551769218	-1.094332168	1.77009545	0.1917374182	-2.747496841e-05	-8.466246923e-05
0.166666667	-0.1911940607	-0.1525135677	-0.3109367681	1.176673732	1.056654546	-0.1010484586	0.2900678309	0.1768211654	0.2440868531	0.1435683085	0.1435683085	-0.203090002	-0.1861592944	-2.33299396e-06	0.1737692965	-0.1518338358	-0.2585975036	0.09648710895	0.09648710895	-0.09766360262	-0.1634102174	-2.861463233e-06	0.3629327027	0.9574175277	-0.8750015339	-0.8728822362	-1.294881499	-1.134798707	0.590338352	0.1854653427	0.5049779209	-0.7852148491	-0.07614269956	0.7551553923	-1.094413708	1.770116128	0.1916759782	-1.159048001e-05	-9.511208428e-05
0.169444444	-0.1912604008	-0.1523646111	-0.3114031404	1.176693819	1.056645287	-0.1011431529	0.2902017402	0.1767496708	0.2447560473	0.143560401	0.143560401	-0.2031585988	-0.1861812485	-2.61356452e-06	0.1738223666	-0.1516420395	-0.2591499956	0.09677002313	0.09677002313	-0.09758561774	-0.1635599256	-2.594103623e-06	0.3630347219	0.9581059288	-0.8757368682	-0.8728401361	-1.294572013	-1.134940132	0.589964165	0.1851662027	0.5047890925	-0.7852035244	-0.07573916008	0.755096703	-1.094470387	1.770145094	0.1915912	-4.552518259e-06	-0.0001066863283
0.172222222	-0.1912945896	-0.1522788203	-0.3118684387	1.176709411	1.056633767	-0.10123325	0.2902793634	0.1767501818	0.24551495	0.1435499581	0.1435499581	-0.2031878811	-0.1861638445	-3.082150226e-06	0.1738312864	-0.1515276632	-0.2597957958	0.09707014046	0.09707014046	-0.09749462403	-0.1637888567	-2.076415687e-06	0.3630698615	0.9588462786	-0.8763527285	-0.872731176	-1.294156383	-1.134957176	0.5889684661	0.1845342774	0.5050388521	-0.7852673094	-0.07535210315	0.7549919169	-1.09446748	1.770160464	0.1914677083	-1.290202456e-05	-0.0001167698102
